<svg xmlns="http://www.w3.org/2000/svg" width="77" height="55" fill="#fff" xmlns:v="https://vecta.io/nano"><path d="M3.172 30.673H72.98c1.752 0 3.173-1.422 3.173-3.173s-1.421-3.173-3.173-3.173H3.172c-1.752 0-3.173 1.422-3.173 3.173s1.422 3.173 3.173 3.173zm.001-24.327h69.808c1.752 0 3.173-1.422 3.173-3.173S74.733 0 72.981 0H3.173C1.422 0 0 1.422 0 3.173s1.422 3.173 3.173 3.173zM3.172 55H72.98c1.752 0 3.173-1.422 3.173-3.173s-1.421-3.173-3.173-3.173H3.172c-1.752 0-3.173 1.422-3.173 3.173S1.421 55 3.172 55z"/></svg>