<svg xmlns="http://www.w3.org/2000/svg" height="909.333" viewBox="-21 -117 682.667 682" width="909.333" xmlns:v="https://vecta.io/nano"><path d="M626.813 64.035c-7.375-27.418-28.992-49.031-56.406-56.414C520.324-6.082 319.992-6.082 319.992-6.082s-200.324 0-250.406 13.184c-26.887 7.375-49.031 29.52-56.406 56.934C0 114.113 0 217.969 0 217.969s0 104.379 13.18 153.934c7.383 27.414 28.992 49.027 56.41 56.41C120.195 442.02 320 442.02 320 442.02s200.324 0 250.406-13.184c27.418-7.379 49.031-28.992 56.414-56.406 13.176-50.082 13.176-153.934 13.176-153.934s.527-104.383-13.184-154.461zM256.211 313.914V122.023l166.586 95.945zm0 0"/></svg>